<svg xmlns="http://www.w3.org/2000/svg" xmlns:xlink="http://www.w3.org/1999/xlink" width="500" zoomAndPan="magnify" viewBox="0 0 375 374.999991" height="500" preserveAspectRatio="xMidYMid meet" version="1.0"><defs><g/><clipPath id="5c50a6a1f9"><path d="M 172.652344 73.570312 L 202.652344 73.570312 L 202.652344 103.570312 L 172.652344 103.570312 Z M 172.652344 73.570312 " clip-rule="nonzero"/></clipPath><clipPath id="b27d3ccfb5"><path d="M 155.296875 55.109375 L 219.796875 55.109375 L 219.796875 151.109375 L 155.296875 151.109375 Z M 155.296875 55.109375 " clip-rule="nonzero"/></clipPath><clipPath id="657d635220"><path d="M 167.53125 69.316406 L 207.28125 69.316406 L 207.28125 103.066406 L 167.53125 103.066406 Z M 167.53125 69.316406 " clip-rule="nonzero"/></clipPath><clipPath id="3251b53f8e"><path d="M 106 158 L 148.90625 158 L 148.90625 190 L 106 190 Z M 106 158 " clip-rule="nonzero"/></clipPath><clipPath id="9547442fe3"><path d="M 96.40625 151.417969 L 145 151.417969 L 145 199.417969 L 96.40625 199.417969 Z M 96.40625 151.417969 " clip-rule="nonzero"/></clipPath><clipPath id="b666d057bc"><path d="M 87.554688 211.171875 L 287.804688 211.171875 L 287.804688 238.921875 L 87.554688 238.921875 Z M 87.554688 211.171875 " clip-rule="nonzero"/></clipPath></defs><rect x="-37.5" width="450" fill="#ffffff" y="-37.499999" height="449.999989" fill-opacity="1"/><rect x="-37.5" width="450" fill="#ffffff" y="-37.499999" height="449.999989" fill-opacity="1"/><rect x="-37.5" width="450" fill="#f6f7fc" y="-37.499999" height="449.999989" fill-opacity="1"/><g clip-path="url(#5c50a6a1f9)"><path fill="#f14b2c" d="M 187.652344 73.570312 C 179.367188 73.570312 172.652344 80.285156 172.652344 88.570312 C 172.652344 96.851562 179.367188 103.570312 187.652344 103.570312 C 195.9375 103.570312 202.652344 96.851562 202.652344 88.570312 C 202.652344 80.285156 195.9375 73.570312 187.652344 73.570312 " fill-opacity="1" fill-rule="nonzero"/></g><g clip-path="url(#b27d3ccfb5)"><path fill="#f14b2c" d="M 187.542969 55.109375 C 169.785156 55.109375 155.394531 69.433594 155.394531 87.109375 C 155.394531 93.105469 157.050781 98.71875 159.9375 103.515625 L 187.542969 151.113281 L 215.167969 103.480469 C 218.039062 98.691406 219.691406 93.09375 219.691406 87.109375 C 219.691406 69.433594 205.296875 55.109375 187.542969 55.109375 Z M 187.542969 97.816406 C 181.601562 97.816406 176.785156 93.023438 176.785156 87.109375 C 176.785156 81.195312 181.601562 76.398438 187.542969 76.398438 C 193.484375 76.398438 198.300781 81.195312 198.300781 87.109375 C 198.300781 93.023438 193.484375 97.816406 187.542969 97.816406 Z M 187.542969 97.816406 " fill-opacity="1" fill-rule="nonzero"/></g><g clip-path="url(#657d635220)"><path fill="#ffffff" d="M 183.429688 103.066406 L 183.429688 91.152344 L 191.378906 91.152344 L 191.378906 103.066406 L 201.3125 103.066406 L 201.3125 87.183594 L 207.273438 87.183594 L 187.40625 69.316406 L 167.535156 87.183594 L 173.496094 87.183594 L 173.496094 103.066406 Z M 183.429688 103.066406 " fill-opacity="1" fill-rule="nonzero"/></g><g clip-path="url(#3251b53f8e)"><path fill="#008037" d="M 114.59375 183.210938 L 119.910156 189.207031 L 120.097656 189.417969 L 148.789062 164.4375 L 143.285156 158.230469 L 120.765625 177.835938 L 112.914062 168.980469 L 106.738281 174.355469 Z M 114.59375 183.210938 " fill-opacity="1" fill-rule="nonzero"/></g><g clip-path="url(#9547442fe3)"><path fill="#008037" d="M 138.902344 193.417969 L 102.578125 193.417969 L 102.578125 157.417969 L 138.902344 157.417969 L 138.902344 158.445312 L 143.929688 154.082031 C 142.84375 152.476562 141 151.417969 138.902344 151.417969 L 102.578125 151.417969 C 99.234375 151.417969 96.523438 154.105469 96.523438 157.417969 L 96.523438 193.417969 C 96.523438 196.730469 99.234375 199.417969 102.578125 199.417969 L 138.902344 199.417969 C 142.246094 199.417969 144.957031 196.730469 144.957031 193.417969 L 144.957031 171.324219 L 138.902344 176.59375 Z M 138.902344 193.417969 " fill-opacity="1" fill-rule="nonzero"/></g><g clip-path="url(#b666d057bc)"><path fill="#f1b42c" d="M 287.785156 225.046875 C 287.785156 232.707031 281.527344 238.921875 273.808594 238.921875 L 101.550781 238.921875 C 93.828125 238.921875 87.574219 232.707031 87.574219 225.046875 C 87.574219 217.382812 93.828125 211.171875 101.550781 211.171875 L 273.808594 211.171875 C 281.527344 211.171875 287.785156 217.382812 287.785156 225.046875 " fill-opacity="1" fill-rule="nonzero"/></g><g fill="#ffffff" fill-opacity="1"><g transform="translate(126.332178, 228.684942)"><g><path d="M 4.398438 0 L 7.222656 -7.863281 L 6.175781 -7.863281 L 3.761719 -0.742188 L 1.425781 -7.863281 L 0.363281 -7.863281 L 3.078125 0 Z M 4.398438 0 "/></g></g></g><g fill="#ffffff" fill-opacity="1"><g transform="translate(134.402885, 228.684942)"><g><path d="M 4.308594 0 L 5.285156 0 C 5.195312 -0.671875 5.171875 -1.082031 5.171875 -1.539062 L 5.171875 -3.804688 C 5.171875 -4.066406 5.160156 -4.363281 5.136719 -4.601562 C 5.035156 -5.59375 4.433594 -6.199219 2.996094 -6.199219 C 1.664062 -6.199219 0.761719 -5.457031 0.671875 -4.171875 L 1.699219 -4.171875 C 1.765625 -5 2.175781 -5.445312 2.996094 -5.445312 C 3.804688 -5.445312 4.125 -5.082031 4.171875 -4.523438 C 4.191406 -4.296875 4.191406 -4.054688 4.191406 -3.792969 L 4.191406 -3.632812 L 3.804688 -3.632812 C 1.4375 -3.632812 0.410156 -2.929688 0.410156 -1.5625 C 0.410156 -0.445312 1.265625 0.160156 2.359375 0.160156 C 2.941406 0.160156 3.464844 0.0703125 3.875 -0.214844 L 4.203125 -0.867188 Z M 2.6875 -0.59375 C 1.949219 -0.59375 1.480469 -0.910156 1.480469 -1.640625 C 1.480469 -2.675781 2.53125 -3.03125 4.191406 -2.90625 L 4.191406 -2.289062 C 4.191406 -1.195312 3.601562 -0.59375 2.6875 -0.59375 Z M 2.6875 -0.59375 "/></g></g></g><g fill="#ffffff" fill-opacity="1"><g transform="translate(141.437933, 228.684942)"><g><path d="M 1.777344 -8.375 L 0.796875 -8.375 L 0.796875 -1.699219 C 0.796875 -1.367188 0.796875 -1.105469 0.808594 -0.898438 C 0.84375 -0.136719 1.265625 0.046875 1.835938 0.046875 C 2.0625 0.046875 2.3125 0.0351562 2.53125 0 L 2.53125 -0.707031 C 1.992188 -0.648438 1.8125 -0.773438 1.789062 -1.164062 C 1.777344 -1.355469 1.777344 -1.550781 1.777344 -1.730469 Z M 1.777344 -8.375 "/></g></g></g><g fill="#ffffff" fill-opacity="1"><g transform="translate(145.240801, 228.684942)"><g><path d="M 5.855469 -6.039062 L 4.875 -6.039062 L 4.875 -3.382812 C 4.875 -1.320312 4.125 -0.617188 3.179688 -0.617188 C 2.359375 -0.617188 1.867188 -1.082031 1.777344 -1.765625 C 1.742188 -2.074219 1.730469 -2.402344 1.730469 -2.597656 L 1.730469 -6.039062 L 0.753906 -6.039062 L 0.753906 -2.414062 C 0.753906 -1.925781 0.761719 -1.6875 0.808594 -1.378906 C 0.945312 -0.546875 1.675781 0.160156 2.929688 0.160156 C 3.542969 0.160156 3.988281 0.0585938 4.5 -0.320312 L 4.875 -1.027344 L 4.875 0 L 5.855469 0 Z M 5.855469 -6.039062 "/></g></g></g><g fill="#ffffff" fill-opacity="1"><g transform="translate(152.970074, 228.684942)"><g><path d="M 4.308594 0 L 5.285156 0 C 5.195312 -0.671875 5.171875 -1.082031 5.171875 -1.539062 L 5.171875 -3.804688 C 5.171875 -4.066406 5.160156 -4.363281 5.136719 -4.601562 C 5.035156 -5.59375 4.433594 -6.199219 2.996094 -6.199219 C 1.664062 -6.199219 0.761719 -5.457031 0.671875 -4.171875 L 1.699219 -4.171875 C 1.765625 -5 2.175781 -5.445312 2.996094 -5.445312 C 3.804688 -5.445312 4.125 -5.082031 4.171875 -4.523438 C 4.191406 -4.296875 4.191406 -4.054688 4.191406 -3.792969 L 4.191406 -3.632812 L 3.804688 -3.632812 C 1.4375 -3.632812 0.410156 -2.929688 0.410156 -1.5625 C 0.410156 -0.445312 1.265625 0.160156 2.359375 0.160156 C 2.941406 0.160156 3.464844 0.0703125 3.875 -0.214844 L 4.203125 -0.867188 Z M 2.6875 -0.59375 C 1.949219 -0.59375 1.480469 -0.910156 1.480469 -1.640625 C 1.480469 -2.675781 2.53125 -3.03125 4.191406 -2.90625 L 4.191406 -2.289062 C 4.191406 -1.195312 3.601562 -0.59375 2.6875 -0.59375 Z M 2.6875 -0.59375 "/></g></g></g><g fill="#ffffff" fill-opacity="1"><g transform="translate(160.005123, 228.684942)"><g><path d="M 6.117188 -8.375 L 5.136719 -8.375 L 5.136719 -5.207031 L 4.738281 -5.800781 C 4.433594 -6.050781 3.792969 -6.199219 3.292969 -6.199219 C 1.730469 -6.199219 0.34375 -5.160156 0.34375 -2.929688 C 0.34375 -1.164062 1.320312 0.160156 3.085938 0.160156 C 3.703125 0.160156 4.339844 -0.0351562 4.683594 -0.320312 L 5.136719 -0.96875 L 5.136719 0 L 6.117188 0 Z M 3.234375 -0.59375 C 2.027344 -0.59375 1.414062 -1.675781 1.414062 -3.042969 C 1.414062 -4.625 2.234375 -5.445312 3.292969 -5.445312 C 4.160156 -5.445312 5.136719 -4.855469 5.136719 -3.292969 L 5.136719 -2.960938 C 5.136719 -1.230469 4.238281 -0.59375 3.234375 -0.59375 Z M 3.234375 -0.59375 "/></g></g></g><g fill="#ffffff" fill-opacity="1"><g transform="translate(167.996154, 228.684942)"><g><path d="M 3.339844 -6.199219 C 1.289062 -6.199219 0.34375 -4.726562 0.34375 -3.019531 C 0.34375 -1.320312 1.289062 0.160156 3.339844 0.160156 C 5.390625 0.160156 6.335938 -1.320312 6.335938 -3.019531 C 6.335938 -4.726562 5.390625 -6.199219 3.339844 -6.199219 Z M 3.339844 -0.59375 C 2.121094 -0.59375 1.414062 -1.605469 1.414062 -3.019531 C 1.414062 -4.445312 2.121094 -5.445312 3.339844 -5.445312 C 4.558594 -5.445312 5.265625 -4.445312 5.265625 -3.019531 C 5.265625 -1.605469 4.558594 -0.59375 3.339844 -0.59375 Z M 3.339844 -0.59375 "/></g></g></g><g fill="#ffffff" fill-opacity="1"><g transform="translate(175.657146, 228.684942)"><g><path d="M 3.214844 -6.175781 C 2.929688 -6.175781 2.621094 -6.074219 2.371094 -5.902344 L 1.824219 -5.09375 L 1.824219 -6.039062 L 0.84375 -6.039062 L 0.84375 0 L 1.824219 0 L 1.824219 -3.441406 C 1.824219 -4.820312 2.597656 -5.421875 3.625 -5.355469 L 3.625 -6.09375 C 3.507812 -6.152344 3.371094 -6.175781 3.214844 -6.175781 Z M 3.214844 -6.175781 "/></g></g></g><g fill="#ffffff" fill-opacity="1"><g transform="translate(180.404634, 228.684942)"><g/></g></g><g fill="#ffffff" fill-opacity="1"><g transform="translate(183.854707, 228.684942)"><g><path d="M 2.121094 0 L 2.121094 -7.863281 L 1.140625 -7.863281 L 1.140625 0 Z M 2.121094 0 "/></g></g></g><g fill="#ffffff" fill-opacity="1"><g transform="translate(187.851063, 228.684942)"><g><path d="M 5.925781 -4.433594 C 5.832031 -5.492188 5.09375 -6.199219 3.769531 -6.199219 C 3.15625 -6.199219 2.710938 -6.09375 2.199219 -5.695312 L 1.824219 -5 L 1.824219 -6.039062 L 0.84375 -6.039062 L 0.84375 0 L 1.824219 0 L 1.824219 -2.65625 C 1.824219 -4.71875 2.621094 -5.421875 3.566406 -5.421875 C 4.5 -5.421875 4.886719 -4.898438 4.945312 -4.191406 C 4.96875 -3.886719 4.96875 -3.632812 4.96875 -3.328125 L 4.96875 0 L 5.949219 0 L 5.949219 -3.394531 C 5.949219 -3.886719 5.949219 -4.125 5.925781 -4.433594 Z M 5.925781 -4.433594 "/></g></g></g><g fill="#ffffff" fill-opacity="1"><g transform="translate(195.591716, 228.684942)"><g><path d="M 2.015625 -5.242188 L 3.144531 -5.242188 L 3.144531 -5.992188 L 2.015625 -5.992188 L 2.015625 -7.394531 L 1.035156 -7.394531 L 1.035156 -5.992188 L 0.226562 -5.992188 L 0.226562 -5.242188 L 1.035156 -5.242188 L 1.035156 -1.71875 C 1.035156 -1.378906 1.035156 -1.128906 1.046875 -0.96875 C 1.105469 -0.214844 1.492188 0.0898438 2.246094 0.0898438 C 2.519531 0.0898438 2.792969 0.078125 3.078125 0.0351562 L 3.078125 -0.683594 C 2.3125 -0.59375 2.074219 -0.71875 2.027344 -1.300781 C 2.015625 -1.457031 2.015625 -1.5625 2.015625 -1.765625 Z M 2.015625 -5.242188 "/></g></g></g><g fill="#ffffff" fill-opacity="1"><g transform="translate(200.145728, 228.684942)"><g><path d="M 5.800781 -3.191406 C 5.800781 -4.957031 4.875 -6.199219 3.214844 -6.199219 C 1.5625 -6.199219 0.34375 -4.957031 0.34375 -2.996094 C 0.34375 -0.867188 1.515625 0.160156 3.085938 0.160156 C 4.328125 0.160156 5.480469 -0.488281 5.71875 -1.949219 L 4.695312 -1.949219 C 4.558594 -1.082031 3.917969 -0.59375 3.132812 -0.59375 C 2.246094 -0.59375 1.492188 -1.128906 1.402344 -2.722656 L 5.777344 -2.722656 C 5.800781 -2.941406 5.800781 -3.097656 5.800781 -3.191406 Z M 3.191406 -5.445312 C 4.179688 -5.445312 4.71875 -4.726562 4.808594 -3.476562 L 1.414062 -3.476562 C 1.527344 -4.761719 2.234375 -5.445312 3.191406 -5.445312 Z M 3.191406 -5.445312 "/></g></g></g><g fill="#ffffff" fill-opacity="1"><g transform="translate(207.385623, 228.684942)"><g><path d="M 1.777344 -8.375 L 0.796875 -8.375 L 0.796875 -1.699219 C 0.796875 -1.367188 0.796875 -1.105469 0.808594 -0.898438 C 0.84375 -0.136719 1.265625 0.046875 1.835938 0.046875 C 2.0625 0.046875 2.3125 0.0351562 2.53125 0 L 2.53125 -0.707031 C 1.992188 -0.648438 1.8125 -0.773438 1.789062 -1.164062 C 1.777344 -1.355469 1.777344 -1.550781 1.777344 -1.730469 Z M 1.777344 -8.375 "/></g></g></g><g fill="#ffffff" fill-opacity="1"><g transform="translate(211.188487, 228.684942)"><g><path d="M 1.332031 -8.019531 C 0.980469 -8.019531 0.707031 -7.746094 0.707031 -7.394531 C 0.707031 -7.042969 0.980469 -6.769531 1.332031 -6.769531 C 1.6875 -6.769531 1.960938 -7.042969 1.960938 -7.394531 C 1.960938 -7.746094 1.6875 -8.019531 1.332031 -8.019531 Z M 1.824219 0 L 1.824219 -6.039062 L 0.84375 -6.039062 L 0.84375 0 Z M 1.824219 0 "/></g></g></g><g fill="#ffffff" fill-opacity="1"><g transform="translate(214.888934, 228.684942)"><g><path d="M 6.117188 -6.039062 L 5.136719 -6.039062 L 5.136719 -5.207031 L 4.738281 -5.800781 C 4.433594 -6.050781 3.792969 -6.199219 3.292969 -6.199219 C 1.730469 -6.199219 0.34375 -5.160156 0.34375 -2.929688 C 0.34375 -1.164062 1.320312 0.160156 3.085938 0.160156 C 3.703125 0.160156 4.339844 -0.0351562 4.683594 -0.320312 L 5.136719 -0.96875 L 5.136719 -0.867188 C 5.136719 -0.683594 5.136719 -0.488281 5.128906 -0.207031 C 5.082031 0.957031 4.433594 1.640625 3.234375 1.640625 C 2.199219 1.640625 1.605469 1.128906 1.527344 0.386719 L 1.515625 0.285156 L 0.523438 0.285156 L 0.535156 0.398438 C 0.660156 1.675781 1.515625 2.394531 3.234375 2.394531 C 4.980469 2.394531 6.050781 1.457031 6.105469 -0.308594 C 6.117188 -0.636719 6.117188 -1.105469 6.117188 -1.480469 Z M 3.234375 -0.59375 C 2.027344 -0.59375 1.414062 -1.675781 1.414062 -3.042969 C 1.414062 -4.625 2.234375 -5.445312 3.292969 -5.445312 C 4.160156 -5.445312 5.136719 -4.855469 5.136719 -3.292969 L 5.136719 -2.960938 C 5.136719 -1.230469 4.238281 -0.59375 3.234375 -0.59375 Z M 3.234375 -0.59375 "/></g></g></g><g fill="#ffffff" fill-opacity="1"><g transform="translate(222.879961, 228.684942)"><g><path d="M 5.800781 -3.191406 C 5.800781 -4.957031 4.875 -6.199219 3.214844 -6.199219 C 1.5625 -6.199219 0.34375 -4.957031 0.34375 -2.996094 C 0.34375 -0.867188 1.515625 0.160156 3.085938 0.160156 C 4.328125 0.160156 5.480469 -0.488281 5.71875 -1.949219 L 4.695312 -1.949219 C 4.558594 -1.082031 3.917969 -0.59375 3.132812 -0.59375 C 2.246094 -0.59375 1.492188 -1.128906 1.402344 -2.722656 L 5.777344 -2.722656 C 5.800781 -2.941406 5.800781 -3.097656 5.800781 -3.191406 Z M 3.191406 -5.445312 C 4.179688 -5.445312 4.71875 -4.726562 4.808594 -3.476562 L 1.414062 -3.476562 C 1.527344 -4.761719 2.234375 -5.445312 3.191406 -5.445312 Z M 3.191406 -5.445312 "/></g></g></g><g fill="#ffffff" fill-opacity="1"><g transform="translate(230.119856, 228.684942)"><g><path d="M 5.925781 -4.433594 C 5.832031 -5.492188 5.09375 -6.199219 3.769531 -6.199219 C 3.15625 -6.199219 2.710938 -6.09375 2.199219 -5.695312 L 1.824219 -5 L 1.824219 -6.039062 L 0.84375 -6.039062 L 0.84375 0 L 1.824219 0 L 1.824219 -2.65625 C 1.824219 -4.71875 2.621094 -5.421875 3.566406 -5.421875 C 4.5 -5.421875 4.886719 -4.898438 4.945312 -4.191406 C 4.96875 -3.886719 4.96875 -3.632812 4.96875 -3.328125 L 4.96875 0 L 5.949219 0 L 5.949219 -3.394531 C 5.949219 -3.886719 5.949219 -4.125 5.925781 -4.433594 Z M 5.925781 -4.433594 "/></g></g></g><g fill="#ffffff" fill-opacity="1"><g transform="translate(237.860506, 228.684942)"><g><path d="M 2.015625 -5.242188 L 3.144531 -5.242188 L 3.144531 -5.992188 L 2.015625 -5.992188 L 2.015625 -7.394531 L 1.035156 -7.394531 L 1.035156 -5.992188 L 0.226562 -5.992188 L 0.226562 -5.242188 L 1.035156 -5.242188 L 1.035156 -1.71875 C 1.035156 -1.378906 1.035156 -1.128906 1.046875 -0.96875 C 1.105469 -0.214844 1.492188 0.0898438 2.246094 0.0898438 C 2.519531 0.0898438 2.792969 0.078125 3.078125 0.0351562 L 3.078125 -0.683594 C 2.3125 -0.59375 2.074219 -0.71875 2.027344 -1.300781 C 2.015625 -1.457031 2.015625 -1.5625 2.015625 -1.765625 Z M 2.015625 -5.242188 "/></g></g></g><g fill="#ffffff" fill-opacity="1"><g transform="translate(242.414517, 228.684942)"><g><path d="M 5.800781 -3.191406 C 5.800781 -4.957031 4.875 -6.199219 3.214844 -6.199219 C 1.5625 -6.199219 0.34375 -4.957031 0.34375 -2.996094 C 0.34375 -0.867188 1.515625 0.160156 3.085938 0.160156 C 4.328125 0.160156 5.480469 -0.488281 5.71875 -1.949219 L 4.695312 -1.949219 C 4.558594 -1.082031 3.917969 -0.59375 3.132812 -0.59375 C 2.246094 -0.59375 1.492188 -1.128906 1.402344 -2.722656 L 5.777344 -2.722656 C 5.800781 -2.941406 5.800781 -3.097656 5.800781 -3.191406 Z M 3.191406 -5.445312 C 4.179688 -5.445312 4.71875 -4.726562 4.808594 -3.476562 L 1.414062 -3.476562 C 1.527344 -4.761719 2.234375 -5.445312 3.191406 -5.445312 Z M 3.191406 -5.445312 "/></g></g></g><g fill="#004aad" fill-opacity="1"><g transform="translate(155.296211, 172.021059)"><g><path d="M 7.890625 -4.109375 C 7.890625 -4.753906 7.722656 -5.238281 7.390625 -5.5625 C 7.066406 -5.882812 6.472656 -6.222656 5.609375 -6.578125 C 4.035156 -7.171875 2.90625 -7.867188 2.21875 -8.671875 C 1.53125 -9.472656 1.1875 -10.421875 1.1875 -11.515625 C 1.1875 -12.835938 1.65625 -13.898438 2.59375 -14.703125 C 3.53125 -15.503906 4.71875 -15.90625 6.15625 -15.90625 C 7.125 -15.90625 7.984375 -15.703125 8.734375 -15.296875 C 9.492188 -14.890625 10.070312 -14.316406 10.46875 -13.578125 C 10.875 -12.835938 11.078125 -11.992188 11.078125 -11.046875 L 7.921875 -11.046875 C 7.921875 -11.785156 7.765625 -12.34375 7.453125 -12.71875 C 7.140625 -13.101562 6.691406 -13.296875 6.109375 -13.296875 C 5.554688 -13.296875 5.125 -13.132812 4.8125 -12.8125 C 4.507812 -12.488281 4.359375 -12.050781 4.359375 -11.5 C 4.359375 -11.0625 4.53125 -10.664062 4.875 -10.3125 C 5.21875 -9.96875 5.828125 -9.613281 6.703125 -9.25 C 8.234375 -8.6875 9.34375 -8.003906 10.03125 -7.203125 C 10.726562 -6.398438 11.078125 -5.378906 11.078125 -4.140625 C 11.078125 -2.773438 10.640625 -1.707031 9.765625 -0.9375 C 8.898438 -0.164062 7.722656 0.21875 6.234375 0.21875 C 5.210938 0.21875 4.285156 0.0078125 3.453125 -0.40625 C 2.617188 -0.820312 1.96875 -1.414062 1.5 -2.1875 C 1.03125 -2.96875 0.796875 -3.882812 0.796875 -4.9375 L 3.96875 -4.9375 C 3.96875 -4.039062 4.144531 -3.382812 4.5 -2.96875 C 4.851562 -2.5625 5.429688 -2.359375 6.234375 -2.359375 C 7.335938 -2.359375 7.890625 -2.941406 7.890625 -4.109375 Z M 7.890625 -4.109375 "/></g></g></g><g fill="#004aad" fill-opacity="1"><g transform="translate(167.206603, 172.021059)"><g><path d="M 5.390625 -15.6875 L 8.359375 -4.34375 L 11.3125 -15.6875 L 15.453125 -15.6875 L 15.453125 0 L 12.265625 0 L 12.265625 -4.25 L 12.5625 -10.78125 L 9.421875 0 L 7.265625 0 L 4.140625 -10.78125 L 4.421875 -4.25 L 4.421875 0 L 1.265625 0 L 1.265625 -15.6875 Z M 5.390625 -15.6875 "/></g></g></g><g fill="#004aad" fill-opacity="1"><g transform="translate(183.930688, 172.021059)"><g><path d="M 8.75 -3.203125 L 4.421875 -3.203125 L 3.59375 0 L 0.234375 0 L 5.140625 -15.6875 L 8.03125 -15.6875 L 12.96875 0 L 9.59375 0 Z M 5.109375 -5.84375 L 8.046875 -5.84375 L 6.578125 -11.4375 Z M 5.109375 -5.84375 "/></g></g></g><g fill="#004aad" fill-opacity="1"><g transform="translate(197.101041, 172.021059)"><g><path d="M 6.015625 -5.734375 L 4.4375 -5.734375 L 4.4375 0 L 1.265625 0 L 1.265625 -15.6875 L 6.328125 -15.6875 C 7.910156 -15.6875 9.132812 -15.273438 10 -14.453125 C 10.863281 -13.628906 11.296875 -12.457031 11.296875 -10.9375 C 11.296875 -8.863281 10.539062 -7.410156 9.03125 -6.578125 L 11.78125 -0.15625 L 11.78125 0 L 8.375 0 Z M 4.4375 -8.375 L 6.234375 -8.375 C 6.867188 -8.375 7.34375 -8.582031 7.65625 -9 C 7.976562 -9.414062 8.140625 -9.976562 8.140625 -10.6875 C 8.140625 -12.257812 7.523438 -13.046875 6.296875 -13.046875 L 4.4375 -13.046875 Z M 4.4375 -8.375 "/></g></g></g><g fill="#004aad" fill-opacity="1"><g transform="translate(209.312962, 172.021059)"><g><path d="M 11.421875 -13.046875 L 7.546875 -13.046875 L 7.546875 0 L 4.359375 0 L 4.359375 -13.046875 L 0.546875 -13.046875 L 0.546875 -15.6875 L 11.421875 -15.6875 Z M 11.421875 -13.046875 "/></g></g></g><g fill="#004aad" fill-opacity="1"><g transform="translate(221.284488, 172.021059)"><g/></g></g><g fill="#004aad" fill-opacity="1"><g transform="translate(155.296211, 196.021058)"><g><path d="M 8.75 -3.203125 L 4.421875 -3.203125 L 3.59375 0 L 0.234375 0 L 5.140625 -15.6875 L 8.03125 -15.6875 L 12.96875 0 L 9.59375 0 Z M 5.109375 -5.84375 L 8.046875 -5.84375 L 6.578125 -11.4375 Z M 5.109375 -5.84375 "/></g></g></g><g fill="#004aad" fill-opacity="1"><g transform="translate(168.466563, 196.021058)"><g><path d="M 7.890625 -4.109375 C 7.890625 -4.753906 7.722656 -5.238281 7.390625 -5.5625 C 7.066406 -5.882812 6.472656 -6.222656 5.609375 -6.578125 C 4.035156 -7.171875 2.90625 -7.867188 2.21875 -8.671875 C 1.53125 -9.472656 1.1875 -10.421875 1.1875 -11.515625 C 1.1875 -12.835938 1.65625 -13.898438 2.59375 -14.703125 C 3.53125 -15.503906 4.71875 -15.90625 6.15625 -15.90625 C 7.125 -15.90625 7.984375 -15.703125 8.734375 -15.296875 C 9.492188 -14.890625 10.070312 -14.316406 10.46875 -13.578125 C 10.875 -12.835938 11.078125 -11.992188 11.078125 -11.046875 L 7.921875 -11.046875 C 7.921875 -11.785156 7.765625 -12.34375 7.453125 -12.71875 C 7.140625 -13.101562 6.691406 -13.296875 6.109375 -13.296875 C 5.554688 -13.296875 5.125 -13.132812 4.8125 -12.8125 C 4.507812 -12.488281 4.359375 -12.050781 4.359375 -11.5 C 4.359375 -11.0625 4.53125 -10.664062 4.875 -10.3125 C 5.21875 -9.96875 5.828125 -9.613281 6.703125 -9.25 C 8.234375 -8.6875 9.34375 -8.003906 10.03125 -7.203125 C 10.726562 -6.398438 11.078125 -5.378906 11.078125 -4.140625 C 11.078125 -2.773438 10.640625 -1.707031 9.765625 -0.9375 C 8.898438 -0.164062 7.722656 0.21875 6.234375 0.21875 C 5.210938 0.21875 4.285156 0.0078125 3.453125 -0.40625 C 2.617188 -0.820312 1.96875 -1.414062 1.5 -2.1875 C 1.03125 -2.96875 0.796875 -3.882812 0.796875 -4.9375 L 3.96875 -4.9375 C 3.96875 -4.039062 4.144531 -3.382812 4.5 -2.96875 C 4.851562 -2.5625 5.429688 -2.359375 6.234375 -2.359375 C 7.335938 -2.359375 7.890625 -2.941406 7.890625 -4.109375 Z M 7.890625 -4.109375 "/></g></g></g><g fill="#004aad" fill-opacity="1"><g transform="translate(180.376955, 196.021058)"><g><path d="M 7.890625 -4.109375 C 7.890625 -4.753906 7.722656 -5.238281 7.390625 -5.5625 C 7.066406 -5.882812 6.472656 -6.222656 5.609375 -6.578125 C 4.035156 -7.171875 2.90625 -7.867188 2.21875 -8.671875 C 1.53125 -9.472656 1.1875 -10.421875 1.1875 -11.515625 C 1.1875 -12.835938 1.65625 -13.898438 2.59375 -14.703125 C 3.53125 -15.503906 4.71875 -15.90625 6.15625 -15.90625 C 7.125 -15.90625 7.984375 -15.703125 8.734375 -15.296875 C 9.492188 -14.890625 10.070312 -14.316406 10.46875 -13.578125 C 10.875 -12.835938 11.078125 -11.992188 11.078125 -11.046875 L 7.921875 -11.046875 C 7.921875 -11.785156 7.765625 -12.34375 7.453125 -12.71875 C 7.140625 -13.101562 6.691406 -13.296875 6.109375 -13.296875 C 5.554688 -13.296875 5.125 -13.132812 4.8125 -12.8125 C 4.507812 -12.488281 4.359375 -12.050781 4.359375 -11.5 C 4.359375 -11.0625 4.53125 -10.664062 4.875 -10.3125 C 5.21875 -9.96875 5.828125 -9.613281 6.703125 -9.25 C 8.234375 -8.6875 9.34375 -8.003906 10.03125 -7.203125 C 10.726562 -6.398438 11.078125 -5.378906 11.078125 -4.140625 C 11.078125 -2.773438 10.640625 -1.707031 9.765625 -0.9375 C 8.898438 -0.164062 7.722656 0.21875 6.234375 0.21875 C 5.210938 0.21875 4.285156 0.0078125 3.453125 -0.40625 C 2.617188 -0.820312 1.96875 -1.414062 1.5 -2.1875 C 1.03125 -2.96875 0.796875 -3.882812 0.796875 -4.9375 L 3.96875 -4.9375 C 3.96875 -4.039062 4.144531 -3.382812 4.5 -2.96875 C 4.851562 -2.5625 5.429688 -2.359375 6.234375 -2.359375 C 7.335938 -2.359375 7.890625 -2.941406 7.890625 -4.109375 Z M 7.890625 -4.109375 "/></g></g></g><g fill="#004aad" fill-opacity="1"><g transform="translate(192.287347, 196.021058)"><g><path d="M 9.359375 -6.78125 L 4.421875 -6.78125 L 4.421875 -2.625 L 10.265625 -2.625 L 10.265625 0 L 1.265625 0 L 1.265625 -15.6875 L 10.25 -15.6875 L 10.25 -13.046875 L 4.421875 -13.046875 L 4.421875 -9.34375 L 9.359375 -9.34375 Z M 9.359375 -6.78125 "/></g></g></g><g fill="#004aad" fill-opacity="1"><g transform="translate(203.110082, 196.021058)"><g><path d="M 7.890625 -4.109375 C 7.890625 -4.753906 7.722656 -5.238281 7.390625 -5.5625 C 7.066406 -5.882812 6.472656 -6.222656 5.609375 -6.578125 C 4.035156 -7.171875 2.90625 -7.867188 2.21875 -8.671875 C 1.53125 -9.472656 1.1875 -10.421875 1.1875 -11.515625 C 1.1875 -12.835938 1.65625 -13.898438 2.59375 -14.703125 C 3.53125 -15.503906 4.71875 -15.90625 6.15625 -15.90625 C 7.125 -15.90625 7.984375 -15.703125 8.734375 -15.296875 C 9.492188 -14.890625 10.070312 -14.316406 10.46875 -13.578125 C 10.875 -12.835938 11.078125 -11.992188 11.078125 -11.046875 L 7.921875 -11.046875 C 7.921875 -11.785156 7.765625 -12.34375 7.453125 -12.71875 C 7.140625 -13.101562 6.691406 -13.296875 6.109375 -13.296875 C 5.554688 -13.296875 5.125 -13.132812 4.8125 -12.8125 C 4.507812 -12.488281 4.359375 -12.050781 4.359375 -11.5 C 4.359375 -11.0625 4.53125 -10.664062 4.875 -10.3125 C 5.21875 -9.96875 5.828125 -9.613281 6.703125 -9.25 C 8.234375 -8.6875 9.34375 -8.003906 10.03125 -7.203125 C 10.726562 -6.398438 11.078125 -5.378906 11.078125 -4.140625 C 11.078125 -2.773438 10.640625 -1.707031 9.765625 -0.9375 C 8.898438 -0.164062 7.722656 0.21875 6.234375 0.21875 C 5.210938 0.21875 4.285156 0.0078125 3.453125 -0.40625 C 2.617188 -0.820312 1.96875 -1.414062 1.5 -2.1875 C 1.03125 -2.96875 0.796875 -3.882812 0.796875 -4.9375 L 3.96875 -4.9375 C 3.96875 -4.039062 4.144531 -3.382812 4.5 -2.96875 C 4.851562 -2.5625 5.429688 -2.359375 6.234375 -2.359375 C 7.335938 -2.359375 7.890625 -2.941406 7.890625 -4.109375 Z M 7.890625 -4.109375 "/></g></g></g><g fill="#004aad" fill-opacity="1"><g transform="translate(215.020474, 196.021058)"><g><path d="M 7.890625 -4.109375 C 7.890625 -4.753906 7.722656 -5.238281 7.390625 -5.5625 C 7.066406 -5.882812 6.472656 -6.222656 5.609375 -6.578125 C 4.035156 -7.171875 2.90625 -7.867188 2.21875 -8.671875 C 1.53125 -9.472656 1.1875 -10.421875 1.1875 -11.515625 C 1.1875 -12.835938 1.65625 -13.898438 2.59375 -14.703125 C 3.53125 -15.503906 4.71875 -15.90625 6.15625 -15.90625 C 7.125 -15.90625 7.984375 -15.703125 8.734375 -15.296875 C 9.492188 -14.890625 10.070312 -14.316406 10.46875 -13.578125 C 10.875 -12.835938 11.078125 -11.992188 11.078125 -11.046875 L 7.921875 -11.046875 C 7.921875 -11.785156 7.765625 -12.34375 7.453125 -12.71875 C 7.140625 -13.101562 6.691406 -13.296875 6.109375 -13.296875 C 5.554688 -13.296875 5.125 -13.132812 4.8125 -12.8125 C 4.507812 -12.488281 4.359375 -12.050781 4.359375 -11.5 C 4.359375 -11.0625 4.53125 -10.664062 4.875 -10.3125 C 5.21875 -9.96875 5.828125 -9.613281 6.703125 -9.25 C 8.234375 -8.6875 9.34375 -8.003906 10.03125 -7.203125 C 10.726562 -6.398438 11.078125 -5.378906 11.078125 -4.140625 C 11.078125 -2.773438 10.640625 -1.707031 9.765625 -0.9375 C 8.898438 -0.164062 7.722656 0.21875 6.234375 0.21875 C 5.210938 0.21875 4.285156 0.0078125 3.453125 -0.40625 C 2.617188 -0.820312 1.96875 -1.414062 1.5 -2.1875 C 1.03125 -2.96875 0.796875 -3.882812 0.796875 -4.9375 L 3.96875 -4.9375 C 3.96875 -4.039062 4.144531 -3.382812 4.5 -2.96875 C 4.851562 -2.5625 5.429688 -2.359375 6.234375 -2.359375 C 7.335938 -2.359375 7.890625 -2.941406 7.890625 -4.109375 Z M 7.890625 -4.109375 "/></g></g></g><g fill="#004aad" fill-opacity="1"><g transform="translate(226.930866, 196.021058)"><g><path d="M 5.390625 -15.6875 L 8.359375 -4.34375 L 11.3125 -15.6875 L 15.453125 -15.6875 L 15.453125 0 L 12.265625 0 L 12.265625 -4.25 L 12.5625 -10.78125 L 9.421875 0 L 7.265625 0 L 4.140625 -10.78125 L 4.421875 -4.25 L 4.421875 0 L 1.265625 0 L 1.265625 -15.6875 Z M 5.390625 -15.6875 "/></g></g></g><g fill="#004aad" fill-opacity="1"><g transform="translate(243.654951, 196.021058)"><g><path d="M 9.359375 -6.78125 L 4.421875 -6.78125 L 4.421875 -2.625 L 10.265625 -2.625 L 10.265625 0 L 1.265625 0 L 1.265625 -15.6875 L 10.25 -15.6875 L 10.25 -13.046875 L 4.421875 -13.046875 L 4.421875 -9.34375 L 9.359375 -9.34375 Z M 9.359375 -6.78125 "/></g></g></g><g fill="#004aad" fill-opacity="1"><g transform="translate(254.477685, 196.021058)"><g><path d="M 12.234375 0 L 9.0625 0 L 4.421875 -10.28125 L 4.421875 0 L 1.265625 0 L 1.265625 -15.6875 L 4.421875 -15.6875 L 9.078125 -5.390625 L 9.078125 -15.6875 L 12.234375 -15.6875 Z M 12.234375 0 "/></g></g></g><g fill="#004aad" fill-opacity="1"><g transform="translate(267.981873, 196.021058)"><g><path d="M 11.421875 -13.046875 L 7.546875 -13.046875 L 7.546875 0 L 4.359375 0 L 4.359375 -13.046875 L 0.546875 -13.046875 L 0.546875 -15.6875 L 11.421875 -15.6875 Z M 11.421875 -13.046875 "/></g></g></g></svg>